<?xml version="1.0"?>
<svg version="1.1" xmlns="http://www.w3.org/2000/svg" width="100" height="51" style=""><path fill="#" d="M26.90771484375,32.05810546875l9.345703125,0l0,12.2138671875q-2.27197265625,0.7412109375-4.278076171875,1.039306640625t-4.100830078125,0.298095703125q-5.33349609375,0-8.145263671875-3.134033203125t-2.811767578125-8.999267578125q0-5.7041015625,3.262939453125-8.89453125t9.047607421875-3.1904296875q3.62548828125,0,6.9931640625,1.4501953125l-1.65966796875,3.99609375q-2.578125-1.2890625-5.36572265625-1.2890625q-3.23876953125,0-5.1884765625,2.17529296875t-1.94970703125,5.84912109375q0,3.8349609375,1.571044921875,5.857177734375t4.568115234375,2.022216796875q1.56298828125,0,3.17431640625-0.322265625l0-4.91455078125l-4.46337890625,0l0-4.1572265625z M65.028032226563,45.287109375l-6.3486328125,0l-10.248046875-17.8212890625l-0.14501953125,0q0.30615234375,4.72119140625,0.30615234375,6.7353515625l0,11.0859375l-4.46337890625,0l0-23.5576171875l6.30029296875,0l10.23193359375,17.64404296875l0.11279296875,0q-0.24169921875-4.59228515625-0.24169921875-6.49365234375l0-11.150390625l4.49560546875,0l0,23.5576171875z M82.168857421875,32.05810546875l9.345703125,0l0,12.2138671875q-2.27197265625,0.7412109375-4.278076171875,1.039306640625t-4.100830078125,0.298095703125q-5.33349609375,0-8.145263671875-3.134033203125t-2.811767578125-8.999267578125q0-5.7041015625,3.262939453125-8.89453125t9.047607421875-3.1904296875q3.62548828125,0,6.9931640625,1.4501953125l-1.65966796875,3.99609375q-2.578125-1.2890625-5.36572265625-1.2890625q-3.23876953125,0-5.1884765625,2.17529296875t-1.94970703125,5.84912109375q0,3.8349609375,1.571044921875,5.857177734375t4.568115234375,2.022216796875q1.56298828125,0,3.17431640625-0.322265625l0-4.91455078125l-4.46337890625,0l0-4.1572265625z"/><path fill="#" d=""/></svg>
